<svg width="300" height="371" viewBox="0 0 300 371" fill="none" xmlns="http://www.w3.org/2000/svg">
<path d="M286.922 41.9424L285.12 38.9823C269.985 14.066 242.606 -1.02623 213.735 0.801315C210.018 1.03273 206.324 1.54035 202.684 2.31998C176.429 7.93988 153.589 27.7854 144.125 53.208C138.557 68.1629 137.004 85.3744 126.433 97.2405C112.705 112.685 89.3332 113.174 68.8098 112.539C48.2864 111.904 24.9231 112.444 11.238 127.983C2.65801 137.695 -0.0532701 151.5 0.64171 164.508C2.46925 198.939 26.4589 229.716 56.9694 245.031C87.4799 260.346 123.413 261.702 156.806 254.967C203.584 245.529 248.072 219.643 274.816 179.643C301.559 139.643 308.32 85.117 286.922 41.9424Z" fill="#455A64" fill-opacity="0.13"/>
<path d="M214.026 269.922H80.5644V354.718H214.026V269.922Z" fill="#455A64"/>
<path d="M211.049 267.493H77.244C69.1883 267.493 62.658 274.024 62.658 282.079V282.671C62.658 290.727 69.1883 297.257 77.244 297.257H211.049C219.105 297.257 225.635 290.727 225.635 282.671V282.079C225.635 274.024 219.105 267.493 211.049 267.493Z" fill="#455A64"/>
<path d="M214.207 296.854C214.207 296.966 183.027 297.06 144.58 297.06C106.133 297.06 74.9445 296.966 74.9445 296.854C74.9445 296.743 106.116 296.648 144.58 296.648C183.044 296.648 214.207 296.734 214.207 296.854Z" fill="#263238"/>
<path d="M98.3937 355.396C98.2735 355.396 98.1792 342.465 98.1792 326.524C98.1792 310.582 98.2735 297.652 98.3937 297.652C98.5138 297.652 98.5996 310.582 98.5996 326.524C98.5996 342.465 98.5052 355.396 98.3937 355.396Z" fill="#263238"/>
<path d="M182.752 285.246C182.533 284.528 182.358 283.797 182.229 283.058C181.817 281.292 181.242 279.569 180.513 277.91C179.777 276.262 178.895 274.682 177.879 273.191C177.416 272.596 176.989 271.974 176.6 271.329C177.177 271.834 177.687 272.411 178.119 273.045C180.327 275.979 181.833 279.381 182.521 282.989C182.694 283.728 182.772 284.487 182.752 285.246V285.246Z" fill="#263238"/>
<path d="M189.917 280.801C189.848 280.801 189.556 279.943 188.844 278.665C186.97 275.286 183.966 272.677 180.358 271.294C178.977 270.762 178.076 270.599 178.085 270.522C178.304 270.506 178.524 270.526 178.737 270.582C179.319 270.679 179.893 270.822 180.453 271.011C184.22 272.271 187.334 274.974 189.11 278.527C189.379 279.054 189.603 279.602 189.779 280.166C189.859 280.369 189.905 280.583 189.917 280.801Z" fill="#263238"/>
<g opacity="0.3">
<path opacity="0.3" d="M110.363 268.111C115.691 297.523 124.949 327.871 138.033 354.769H144.039C146.493 351.337 145.678 346.635 144.142 342.757C142.606 338.879 140.436 335.035 140.461 330.84C140.461 328.266 141.319 325.752 141.654 323.186C142.881 313.276 136.077 304.216 134.498 294.357C133.932 290.797 134.258 286.678 136.961 284.285C139.329 282.182 142.795 282.019 145.961 282.097C154.232 282.294 162.632 283.332 170.706 281.513C178.78 279.694 186.716 274.169 188.389 266.069L110.363 268.111Z" fill="black"/>
</g>
<path d="M188.707 175.799L214.85 168.738C214.85 168.738 209.256 152.144 204.897 140.192C201.045 129.621 194.601 125.22 191.221 122.826C189.861 121.856 188.285 121.232 186.63 121.007C180.436 120.149 163.516 117.961 155.116 117.258C144.726 116.4 123.035 122.105 123.035 122.105C123.035 122.105 104.014 132.659 97.5957 136.923C96.0286 137.956 94.8276 139.457 94.1637 141.213C92.9797 144.405 91.4696 149.887 89.6678 156.975C88.5095 161.488 84.7086 176.408 84.7086 176.408L107.017 175.722C111.513 189.373 115.682 201.633 115.682 201.633L111.641 226.738C111.641 226.738 142.135 238.931 149.925 238.064C157.716 237.198 193.022 223.564 193.022 223.564C193.022 223.564 188.981 183.736 188.981 182.586C188.981 182.14 188.861 179.248 188.707 175.799Z" fill="#FF725E"/>
<g opacity="0.3">
<path opacity="0.3" d="M162.984 149.244C162.107 148.244 160.996 147.476 159.751 147.009C158.505 146.542 157.164 146.39 155.845 146.567C153.213 146.951 150.717 147.979 148.578 149.561C141.808 154.152 137.012 161.076 132.765 168.051C125.359 180.224 119.135 193.078 114.181 206.438L114.352 209.87C119.904 209.175 123.516 204.491 125.927 199.445C128.338 194.4 129.359 188.815 131.495 183.641C135.62 173.698 143.509 165.789 153.443 161.642C155.096 161.855 156.775 161.672 158.343 161.108C159.911 160.544 161.322 159.615 162.461 158.399C164.623 155.902 165.035 151.852 162.984 149.244Z" fill="black"/>
</g>
<path d="M188.964 180.132C188.835 180.132 188.106 172.89 187.308 163.95C186.51 155.01 185.978 147.742 186.098 147.725C186.219 147.708 186.956 154.958 187.754 163.907C188.552 172.856 189.11 180.115 188.964 180.132Z" fill="#263238"/>
<path d="M101.079 147.725C101.222 148.089 101.331 148.465 101.405 148.849C101.603 149.707 101.843 150.711 102.135 151.955C102.735 154.529 103.542 158.201 104.391 162.251C105.241 166.301 106.004 169.905 106.519 172.547C106.759 173.8 106.957 174.855 107.12 175.679C107.212 176.058 107.264 176.447 107.274 176.837C107.13 176.474 107.021 176.097 106.948 175.713C106.751 174.898 106.51 173.86 106.21 172.616C105.609 169.99 104.812 166.361 103.954 162.32C103.096 158.279 102.349 154.666 101.826 152.024C101.594 150.771 101.388 149.724 101.234 148.901C101.14 148.516 101.088 148.121 101.079 147.725Z" fill="#263238"/>
<path d="M184.974 121.316C185.103 121.316 184.348 124.25 183.833 127.897C183.319 131.543 183.207 134.546 183.07 134.546C182.953 133.895 182.925 133.232 182.984 132.573C183.028 130.988 183.163 129.407 183.387 127.837C183.614 126.267 183.932 124.711 184.34 123.178C184.465 122.531 184.679 121.905 184.974 121.316V121.316Z" fill="#263238"/>
<path d="M188.707 175.799C188.475 175.868 195.356 199.514 195.356 199.514L175.133 197.867L165.481 209.69L199.947 222.388C199.947 222.388 221.311 212.865 221.311 211.998C221.311 211.131 213.589 169.098 213.589 169.098L188.707 175.799Z" fill="#886962"/>
<path d="M173.829 178.536C174.026 178.53 174.22 178.483 174.399 178.399C174.577 178.315 174.737 178.195 174.867 178.047C175.025 177.873 175.145 177.668 175.221 177.445C175.296 177.222 175.325 176.986 175.305 176.751C175.26 176.435 175.126 176.138 174.917 175.897C174.709 175.655 174.435 175.478 174.129 175.387C173.752 175.249 173.345 175.215 172.949 175.287C172.554 175.36 172.185 175.536 171.881 175.799C171.523 176.092 171.231 176.458 171.023 176.872C170.915 177.091 170.828 177.321 170.766 177.558C170.706 177.798 170.629 178.064 170.766 178.219C170.84 178.297 170.936 178.352 171.041 178.378C171.146 178.404 171.256 178.399 171.358 178.364C171.599 178.299 171.811 178.154 171.959 177.953C172.117 177.734 172.221 177.48 172.263 177.213C172.304 176.947 172.283 176.674 172.199 176.417C172.069 176.15 171.886 175.911 171.662 175.716C171.439 175.52 171.178 175.371 170.896 175.277C170.614 175.184 170.316 175.148 170.019 175.171C169.723 175.194 169.434 175.276 169.17 175.413C168.566 175.687 168.038 176.105 167.634 176.631C167.428 176.876 167.294 177.173 167.248 177.489C167.227 177.627 167.259 177.768 167.336 177.884C167.414 178 167.533 178.083 167.669 178.116C167.824 178.138 167.983 178.123 168.132 178.072C168.281 178.021 168.416 177.936 168.527 177.824C168.755 177.593 168.895 177.289 168.921 176.966C168.939 176.611 168.866 176.257 168.708 175.939C168.551 175.62 168.314 175.348 168.02 175.147C167.701 174.951 167.344 174.826 166.973 174.778C166.602 174.731 166.225 174.763 165.867 174.872C165.494 174.957 165.146 175.125 164.849 175.364C164.551 175.604 164.313 175.908 164.151 176.254C164.067 176.416 164.019 176.594 164.01 176.776C164.001 176.958 164.032 177.14 164.099 177.309C164.176 177.467 164.299 177.599 164.453 177.684C164.606 177.77 164.782 177.807 164.957 177.79C165.145 177.784 165.329 177.733 165.493 177.641C165.658 177.549 165.797 177.418 165.9 177.261C166.003 177.103 166.066 176.923 166.084 176.736C166.102 176.548 166.075 176.36 166.004 176.185C165.864 175.805 165.602 175.482 165.259 175.266C164.916 175.05 164.511 174.954 164.108 174.992C163.237 175.068 162.422 175.451 161.808 176.074C161.47 176.369 161.168 176.703 160.908 177.069C160.782 177.222 160.694 177.403 160.651 177.597C160.607 177.791 160.61 177.992 160.659 178.184C160.703 178.261 160.762 178.327 160.832 178.381C160.903 178.434 160.983 178.472 161.069 178.494C161.154 178.515 161.243 178.52 161.331 178.506C161.418 178.493 161.502 178.462 161.577 178.416C161.751 178.319 161.893 178.173 161.986 177.996C162.079 177.819 162.119 177.619 162.1 177.421C162.071 176.973 161.933 176.538 161.698 176.156C161.464 175.773 161.139 175.453 160.753 175.224C160.162 174.861 159.461 174.72 158.775 174.827C158.09 174.933 157.464 175.281 157.012 175.808C156.867 175.972 156.758 176.164 156.69 176.372C156.622 176.58 156.597 176.799 156.618 177.017C156.703 177.875 158.128 178.056 158.591 177.335C158.816 176.947 158.88 176.486 158.769 176.052C158.658 175.617 158.382 175.243 157.999 175.01C157.591 174.781 157.136 174.649 156.669 174.624C156.202 174.599 155.735 174.681 155.305 174.864C154.854 175.036 154.423 175.255 154.018 175.516C153.619 175.739 153.273 176.046 153.005 176.417C152.886 176.583 152.815 176.78 152.8 176.984C152.785 177.188 152.826 177.393 152.92 177.575C152.955 177.659 153.007 177.734 153.074 177.796C153.141 177.857 153.22 177.904 153.306 177.932C153.392 177.961 153.483 177.97 153.574 177.961C153.664 177.951 153.751 177.922 153.829 177.875C153.998 177.771 154.131 177.619 154.214 177.439C154.296 177.259 154.324 177.059 154.292 176.863C154.234 176.432 154.052 176.026 153.769 175.696C153.494 175.362 153.142 175.102 152.742 174.937C152.342 174.772 151.908 174.709 151.478 174.752C151.056 174.792 150.65 174.937 150.297 175.172C149.943 175.407 149.654 175.725 149.453 176.099C149.361 176.269 149.307 176.457 149.295 176.649C149.283 176.842 149.314 177.035 149.385 177.215C149.462 177.369 149.588 177.494 149.743 177.569C149.898 177.645 150.073 177.668 150.243 177.635C150.426 177.613 150.601 177.545 150.752 177.437C150.902 177.329 151.022 177.185 151.101 177.017C151.177 176.843 151.216 176.654 151.216 176.464C151.216 176.273 151.177 176.085 151.101 175.911C150.934 175.554 150.68 175.246 150.361 175.015C150.043 174.784 149.672 174.638 149.282 174.589C148.505 174.415 147.697 174.436 146.931 174.649C146.572 174.731 146.243 174.908 145.977 175.161C145.711 175.415 145.519 175.736 145.421 176.091C145.343 176.432 145.386 176.79 145.542 177.103C145.699 177.415 145.959 177.664 146.279 177.807C146.599 177.868 146.931 177.8 147.202 177.619C147.473 177.437 147.662 177.157 147.729 176.837C147.794 176.512 147.78 176.176 147.688 175.858C147.595 175.54 147.426 175.249 147.197 175.01C146.761 174.521 146.186 174.176 145.549 174.023C144.951 173.877 144.325 173.879 143.727 174.028C143.13 174.178 142.577 174.47 142.117 174.881C141.694 175.254 141.394 175.748 141.259 176.297C141.198 176.542 141.206 176.8 141.283 177.041C141.361 177.282 141.504 177.497 141.697 177.661C141.873 177.809 142.097 177.887 142.327 177.879C142.557 177.872 142.776 177.778 142.941 177.618C143.105 177.471 143.229 177.286 143.302 177.08C143.376 176.873 143.396 176.651 143.361 176.434C143.296 176.02 143.13 175.629 142.879 175.294C142.628 174.96 142.298 174.691 141.92 174.512C141.349 174.2 140.687 174.1 140.05 174.229C139.58 174.328 139.141 174.54 138.771 174.847C138.471 175.109 138.216 175.419 138.016 175.765C138.046 175.666 138.086 175.571 138.136 175.482C138.287 175.217 138.482 174.979 138.711 174.778C139.081 174.443 139.53 174.207 140.015 174.092C140.688 173.941 141.393 174.032 142.006 174.349C142.397 174.538 142.739 174.817 143.003 175.163C143.267 175.509 143.445 175.912 143.524 176.34C143.565 176.594 143.542 176.855 143.458 177.099C143.374 177.342 143.232 177.562 143.044 177.738C142.835 177.938 142.56 178.055 142.27 178.066C141.981 178.077 141.698 177.982 141.474 177.798C141.241 177.605 141.066 177.352 140.969 177.065C140.872 176.779 140.857 176.471 140.925 176.177C141.045 175.576 141.344 175.025 141.783 174.598C142.275 174.147 142.871 173.824 143.517 173.658C144.163 173.492 144.841 173.488 145.489 173.645C146.198 173.808 146.839 174.185 147.325 174.726C147.594 175.007 147.791 175.349 147.899 175.723C148.006 176.096 148.021 176.491 147.943 176.872C147.831 177.27 147.594 177.623 147.265 177.875C147.092 178.008 146.89 178.098 146.675 178.138C146.461 178.178 146.24 178.168 146.03 178.107C145.823 178.038 145.634 177.926 145.474 177.778C145.314 177.63 145.188 177.45 145.103 177.249C144.915 176.857 144.852 176.417 144.923 175.988C145.037 175.568 145.262 175.187 145.575 174.885C145.887 174.583 146.276 174.371 146.699 174.272C147.536 174.027 148.421 173.995 149.273 174.177C149.73 174.243 150.163 174.421 150.534 174.695C150.906 174.969 151.203 175.331 151.401 175.748C151.496 175.974 151.546 176.218 151.546 176.464C151.546 176.71 151.496 176.954 151.401 177.18C151.291 177.411 151.125 177.61 150.918 177.76C150.711 177.91 150.47 178.006 150.217 178.038C149.952 178.092 149.677 178.057 149.433 177.94C149.19 177.822 148.992 177.627 148.87 177.386C148.77 177.147 148.724 176.887 148.736 176.628C148.748 176.368 148.817 176.114 148.938 175.885C149.175 175.44 149.518 175.061 149.936 174.781C150.354 174.501 150.835 174.329 151.336 174.28C151.837 174.23 152.343 174.306 152.807 174.499C153.272 174.692 153.682 174.997 154.001 175.387C154.348 175.781 154.567 176.272 154.627 176.794C154.667 177.077 154.623 177.364 154.501 177.622C154.379 177.88 154.184 178.096 153.941 178.244C153.814 178.322 153.671 178.373 153.524 178.392C153.376 178.411 153.225 178.399 153.083 178.356C152.795 178.254 152.558 178.045 152.422 177.772C152.289 177.518 152.227 177.231 152.243 176.944C152.26 176.657 152.354 176.38 152.516 176.142C152.82 175.711 153.215 175.354 153.675 175.095C154.106 174.815 154.566 174.582 155.047 174.4C155.545 174.191 156.084 174.099 156.622 174.132C157.161 174.164 157.685 174.321 158.153 174.589C158.4 174.736 158.614 174.931 158.784 175.162C158.955 175.393 159.077 175.656 159.144 175.935C159.211 176.214 159.222 176.503 159.175 176.786C159.129 177.07 159.027 177.341 158.874 177.584C158.695 177.822 158.454 178.008 158.177 178.12C157.901 178.232 157.599 178.266 157.304 178.219C156.988 178.188 156.689 178.063 156.446 177.858C156.218 177.651 156.067 177.373 156.017 177.069C155.984 176.786 156.011 176.5 156.095 176.228C156.18 175.956 156.319 175.705 156.506 175.49C157.03 174.873 157.758 174.464 158.558 174.338C159.358 174.212 160.176 174.377 160.865 174.804C161.315 175.073 161.692 175.449 161.964 175.897C162.236 176.346 162.395 176.854 162.426 177.378C162.441 177.662 162.376 177.944 162.238 178.193C162.099 178.442 161.894 178.647 161.645 178.785C161.379 178.915 161.077 178.951 160.787 178.888C160.638 178.855 160.497 178.787 160.378 178.69C160.259 178.593 160.164 178.47 160.101 178.33C160.02 178.068 160.004 177.789 160.053 177.519C160.103 177.249 160.216 176.994 160.384 176.777C160.664 176.378 160.993 176.015 161.362 175.696C162.051 175.006 162.964 174.585 163.936 174.512C164.434 174.486 164.929 174.605 165.361 174.855C165.787 175.124 166.106 175.534 166.261 176.013C166.343 176.252 166.37 176.506 166.342 176.757C166.314 177.007 166.231 177.249 166.098 177.464C165.955 177.67 165.766 177.842 165.546 177.964C165.325 178.086 165.08 178.155 164.829 178.167C164.572 178.184 164.316 178.124 164.093 177.996C163.87 177.868 163.69 177.677 163.576 177.446C163.482 177.224 163.438 176.983 163.447 176.741C163.456 176.5 163.517 176.263 163.627 176.048C163.817 175.644 164.096 175.29 164.444 175.012C164.793 174.734 165.2 174.539 165.635 174.443C166.047 174.322 166.481 174.289 166.906 174.346C167.332 174.404 167.741 174.551 168.106 174.778C168.455 175.018 168.735 175.344 168.92 175.724C169.105 176.105 169.188 176.527 169.162 176.949C169.159 177.164 169.112 177.377 169.022 177.573C168.932 177.769 168.802 177.944 168.64 178.087C168.479 178.229 168.288 178.336 168.083 178.4C167.877 178.464 167.66 178.484 167.446 178.459C167.224 178.406 167.031 178.273 166.901 178.087C166.771 177.9 166.715 177.672 166.742 177.446C166.799 177.058 166.962 176.693 167.214 176.391C167.661 175.833 168.235 175.389 168.887 175.095C169.503 174.801 170.21 174.763 170.853 174.99C171.497 175.217 172.024 175.69 172.319 176.305C172.42 176.607 172.445 176.929 172.393 177.244C172.341 177.558 172.212 177.854 172.019 178.107C171.83 178.358 171.56 178.537 171.255 178.613C171.101 178.659 170.937 178.658 170.784 178.609C170.63 178.56 170.496 178.466 170.397 178.339C170.34 178.203 170.311 178.057 170.311 177.91C170.311 177.762 170.34 177.617 170.397 177.481C170.47 177.231 170.567 176.99 170.689 176.76C170.912 176.317 171.224 175.926 171.607 175.61C171.943 175.334 172.346 175.151 172.775 175.08C173.205 175.009 173.645 175.053 174.052 175.207C174.386 175.314 174.682 175.515 174.904 175.786C175.126 176.057 175.265 176.386 175.305 176.734C175.319 176.985 175.281 177.237 175.194 177.473C175.107 177.709 174.972 177.925 174.799 178.107C174.681 178.249 174.533 178.362 174.365 178.436C174.196 178.511 174.013 178.545 173.829 178.536V178.536Z" fill="#263238"/>
<path d="M137.853 176.065L126.047 220.681L163.584 221.865L175.391 177.798L137.853 176.065Z" fill="#455A64"/>
<path d="M137.853 176.065L136.352 176.202L124.443 217.412L126.253 219.9L137.853 176.065Z" fill="#E0E0E0"/>
<path d="M162.701 187.433H174.893C175.467 187.425 176.031 187.588 176.512 187.901C176.994 188.214 177.371 188.664 177.596 189.192C178.083 190.3 178.323 191.5 178.299 192.71C178.825 193.427 179.124 194.284 179.157 195.173C179.28 197.399 179.28 199.63 179.157 201.856C179.046 202.208 177.75 202.56 177.75 202.56C177.75 202.56 178.608 204.439 177.87 205.838C177.524 206.623 176.897 207.251 176.111 207.597C176.111 207.597 174.472 211.355 172.825 211.818C171.178 212.281 169.668 211.818 168.844 211.818C168.02 211.818 154.773 205.023 154.773 205.023V203.495C154.773 203.495 150.088 203.967 149.968 201.385C149.848 198.802 153.014 198.965 153.014 198.965H160.17C160.17 198.965 152.31 199.274 151.59 198.107C150.869 196.94 149.942 194.117 152.345 193.654C154.747 193.191 165.592 193.182 165.592 193.182L171.512 194.16H172.448L171.718 191.586C171.718 191.586 165.506 191.586 164.58 191.458C163.653 191.329 161.903 191.106 161.903 189.467C161.903 187.828 162.701 187.433 162.701 187.433Z" fill="#886962"/>
<path d="M169.556 199.686C168.806 199.819 168.044 199.871 167.282 199.84C165.875 199.84 163.928 199.84 161.783 199.686C159.638 199.531 157.699 199.325 156.309 199.128C155.548 199.062 154.797 198.912 154.069 198.682C154.829 198.648 155.59 198.685 156.343 198.793C157.742 198.914 159.672 199.077 161.808 199.214C163.945 199.351 165.884 199.437 167.282 199.506C168.044 199.49 168.806 199.55 169.556 199.686V199.686Z" fill="#654742"/>
<path d="M168.449 206.258C167.772 206.329 167.088 206.309 166.416 206.198C165.172 206.086 163.456 205.889 161.568 205.58C159.681 205.271 157.99 204.928 156.772 204.628C156.103 204.513 155.449 204.32 154.824 204.053C155.504 204.058 156.18 204.142 156.841 204.302L161.645 205.117L166.459 205.872C167.134 205.931 167.801 206.061 168.449 206.258V206.258Z" fill="#654742"/>
<path d="M178.66 197.043C178.66 197.043 178.831 197.095 179.089 197.309C179.445 197.623 179.716 198.021 179.878 198.467C180.142 199.167 180.127 199.941 179.835 200.63C179.644 201.066 179.355 201.454 178.99 201.762C178.626 202.069 178.196 202.29 177.733 202.406L177.87 202.071C178.145 202.54 178.318 203.061 178.377 203.601C178.436 204.141 178.38 204.687 178.214 205.204C178.047 205.721 177.772 206.197 177.408 206.6C177.045 207.004 176.6 207.326 176.103 207.545L176.24 207.391C175.824 208.978 174.898 210.386 173.606 211.397C173.238 211.681 172.841 211.926 172.422 212.127C172.277 212.212 172.117 212.267 171.95 212.29C171.95 212.23 172.559 211.947 173.426 211.183C174.595 210.155 175.427 208.797 175.811 207.288V207.176L175.914 207.133C176.347 206.935 176.735 206.649 177.051 206.292C177.368 205.936 177.607 205.518 177.753 205.064C177.899 204.611 177.949 204.132 177.9 203.658C177.851 203.184 177.703 202.725 177.467 202.311L177.295 202.045L177.604 201.968C178.006 201.875 178.381 201.692 178.702 201.434C179.022 201.175 179.281 200.847 179.457 200.475C179.741 199.874 179.79 199.189 179.595 198.553C179.395 197.989 179.076 197.474 178.66 197.043Z" fill="#654742"/>
<path d="M149.925 139.042L157.45 123.89L155.116 117.249C155.116 117.249 166.407 111.389 162.546 99.4284C160.684 93.6541 155.88 82.0711 151.392 71.6378C149.074 66.2331 144.805 61.8993 139.436 59.4987C134.068 57.098 127.992 56.8065 122.418 58.682L121.268 59.0681C109.119 63.9587 106.485 77.0089 111.71 89.0209L126.991 133.637L149.925 139.042Z" fill="#886962"/>
<path d="M155.125 117.215C149.659 119.166 143.736 119.446 138.11 118.021C138.11 118.021 144.666 125.357 156.197 120.286L155.125 117.215Z" fill="#654742"/>
<path d="M151.813 81.0415C151.966 81.4832 151.94 81.9672 151.741 82.3903C151.543 82.8134 151.186 83.1422 150.749 83.3066C150.538 83.3974 150.311 83.4449 150.082 83.4464C149.852 83.4479 149.624 83.4033 149.412 83.3153C149.2 83.2273 149.008 83.0977 148.847 82.9341C148.686 82.7704 148.56 82.5762 148.475 82.3628C148.322 81.9211 148.348 81.4371 148.547 81.014C148.745 80.5909 149.101 80.2621 149.539 80.0977C149.75 80.0069 149.977 79.9594 150.206 79.9579C150.436 79.9564 150.663 80.001 150.875 80.089C151.087 80.177 151.28 80.3066 151.441 80.4702C151.602 80.6338 151.728 80.8281 151.813 81.0415Z" fill="#263238"/>
<path d="M150.775 77.6095C150.637 77.9012 149.059 77.3864 147.205 78.0042C145.352 78.6219 144.34 79.9947 144.065 79.8317C143.936 79.7716 144.014 79.2912 144.46 78.6734C145.066 77.8657 145.909 77.2662 146.871 76.9574C147.827 76.6473 148.857 76.6473 149.814 76.9574C150.5 77.1376 150.843 77.4808 150.775 77.6095Z" fill="#263238"/>
<path d="M134.97 86.6271C135.123 87.07 135.098 87.5552 134.899 87.9797C134.701 88.4042 134.345 88.7346 133.906 88.9008C133.695 88.9915 133.469 89.0391 133.239 89.0406C133.009 89.0421 132.782 88.9975 132.57 88.9095C132.358 88.8215 132.166 88.6918 132.005 88.5282C131.844 88.3646 131.717 88.1704 131.633 87.957C131.479 87.514 131.505 87.0289 131.703 86.6044C131.902 86.1799 132.258 85.8495 132.696 85.6833C132.907 85.5925 133.134 85.545 133.364 85.5435C133.593 85.542 133.821 85.5866 134.033 85.6746C134.245 85.7626 134.437 85.8922 134.598 86.0558C134.759 86.2194 134.886 86.4137 134.97 86.6271Z" fill="#263238"/>
<path d="M132.997 83.032C132.885 83.3409 131.229 83.032 129.479 83.8128C127.729 84.5936 126.854 86.0951 126.562 85.975C126.425 85.9235 126.45 85.443 126.828 84.7738C127.34 83.8952 128.114 83.1991 129.041 82.7832C129.951 82.3573 130.974 82.234 131.959 82.4314C132.688 82.5944 133.048 82.8948 132.997 83.032Z" fill="#263238"/>
<path d="M144.142 96.0307C145.002 95.4008 145.939 94.8846 146.931 94.4949C147.385 94.289 147.789 94.0488 147.789 93.7056C147.789 93.3624 147.42 92.8905 147.017 92.4186L144.443 89.3298C140.822 84.9025 138.025 81.2045 138.205 81.0587C138.385 80.9128 141.465 84.3877 145.069 88.7806L147.591 91.9123C148.075 92.3798 148.379 93.0024 148.449 93.6712C148.435 93.8589 148.38 94.0411 148.286 94.2044C148.193 94.3677 148.064 94.508 147.909 94.615C147.674 94.7692 147.42 94.8931 147.154 94.984C146.199 95.4598 145.187 95.8116 144.142 96.0307V96.0307Z" fill="#263238"/>
<path d="M130.509 76.7C130.509 77.2577 128.587 77.6352 126.527 78.6133C124.468 79.5915 122.924 80.7669 122.486 80.4151C122.289 80.2435 122.435 79.6773 122.975 78.9566C123.714 78.054 124.647 77.3303 125.705 76.84C126.763 76.3496 127.918 76.1052 129.084 76.1252C129.977 76.1337 130.509 76.3911 130.509 76.7Z" fill="#263238"/>
<path d="M148.595 72.6846C148.415 73.2165 147.008 73.208 145.481 73.697C143.953 74.1861 142.778 74.9154 142.332 74.555C142.135 74.3834 142.195 73.9029 142.624 73.3195C143.22 72.5956 144.017 72.0643 144.915 71.7925C145.813 71.5207 146.771 71.5207 147.669 71.7923C148.346 72.0668 148.672 72.41 148.595 72.6846Z" fill="#263238"/>
<path d="M115.648 97.4722C115.416 97.4722 106.648 97.7982 109.642 105.855C112.636 113.911 120.11 109.287 120.041 109.004C119.972 108.721 115.648 97.4722 115.648 97.4722Z" fill="#886962"/>
<path d="M116.446 106.867C116.403 106.867 116.343 107.022 116.146 107.219C115.865 107.485 115.494 107.632 115.107 107.631C114.138 107.631 112.92 106.55 112.345 105.108C112.063 104.427 111.939 103.691 111.984 102.955C111.966 102.675 112.017 102.395 112.132 102.139C112.247 101.883 112.423 101.66 112.645 101.488C112.792 101.39 112.967 101.346 113.142 101.364C113.317 101.381 113.481 101.458 113.606 101.582C113.795 101.762 113.803 101.942 113.855 101.942C113.906 101.942 113.975 101.745 113.786 101.436C113.666 101.254 113.487 101.118 113.28 101.05C112.995 100.964 112.687 100.991 112.422 101.127C112.114 101.317 111.861 101.582 111.685 101.897C111.509 102.213 111.417 102.568 111.418 102.929C111.336 103.752 111.456 104.583 111.77 105.349C112.422 106.953 113.82 108.171 115.107 108.069C115.348 108.052 115.581 107.981 115.79 107.862C116 107.744 116.18 107.58 116.317 107.382C116.506 107.073 116.48 106.876 116.446 106.867Z" fill="#654742"/>
<path d="M139.174 99.1109C139.466 98.9908 140.144 100.981 142.315 101.814C144.485 102.646 146.536 101.728 146.605 101.994C146.673 102.114 146.261 102.543 145.378 102.852C144.22 103.26 142.956 103.245 141.808 102.809C140.706 102.393 139.808 101.566 139.303 100.501C138.977 99.7116 139.037 99.1453 139.174 99.1109Z" fill="#263238"/>
<path d="M154.327 53.9973C153.957 53.2574 153.409 52.6213 152.732 52.1464C152.055 51.6715 151.27 51.3729 150.449 51.2775C150.29 50.8274 150.089 50.3936 149.848 49.9819C149.105 48.7301 147.955 47.7711 146.59 47.2651C145.225 46.7592 143.728 46.7369 142.349 47.202C141.774 46.2333 140.946 45.4397 139.953 44.9067C138.961 44.3737 137.842 44.1214 136.716 44.177C135.591 44.2326 134.503 44.594 133.567 45.2222C132.632 45.8505 131.886 46.7218 131.409 47.7425C130.093 47.2137 128.652 47.0749 127.258 47.3427C125.864 47.6104 124.577 48.2734 123.55 49.2526C123.282 49.479 123.083 49.7763 122.975 50.1106C122.951 50.2256 122.951 50.3443 122.975 50.4595C122.998 50.5746 123.045 50.6836 123.113 50.7798C122.53 50.3076 121.842 49.983 121.107 49.8336C120.372 49.6843 119.612 49.7145 118.891 49.9218C118.404 50.0719 117.945 50.304 117.536 50.6082C116.283 51.1545 115.292 52.1669 114.773 53.431C112.948 53.4588 111.196 54.1542 109.849 55.3858C108.503 56.6174 107.653 58.2997 107.463 60.1149C106.161 60.6582 105.051 61.5766 104.273 62.7532C103.495 63.9297 103.085 65.3111 103.096 66.7215C102.252 67.0723 101.516 67.6415 100.965 68.3705C100.414 69.0996 100.067 69.9623 99.9591 70.87C99.8517 71.7776 99.9878 72.6975 100.354 73.5351C100.719 74.3728 101.301 75.0979 102.04 75.6361C102.04 75.6361 96.7721 78.845 99.9638 83.4353C101.594 85.7862 104.94 84.156 104.94 84.156L114.842 99.1453C114.799 99.2483 116.558 100.801 117.416 100.055C118.274 99.3083 118.471 98.1157 118.737 97.0175C119.144 95.7942 119.355 94.5143 119.363 93.2251C119.351 92.5805 119.13 91.9572 118.734 91.4484C118.338 90.9396 117.788 90.5726 117.167 90.4023C117.758 89.8879 118.203 89.227 118.458 88.486C118.712 87.7449 118.767 86.9499 118.617 86.1809C118.306 84.6465 117.725 83.1794 116.901 81.848L113.58 75.7819C115.043 75.2273 116.325 74.2835 117.29 73.0525C118.255 71.8216 118.865 70.3503 119.054 68.7978C119.721 68.99 120.42 69.0389 121.106 68.9411C121.793 68.8434 122.451 68.6013 123.037 68.2309C123.623 67.8604 124.124 67.3699 124.507 66.7918C124.889 66.2137 125.145 65.561 125.258 64.8768C126.271 66.1437 127.727 66.9792 129.332 67.2149C130.937 67.4505 132.572 67.0688 133.906 66.1466C134.147 67.9398 137.699 68.489 139.509 68.3774C141.319 68.2659 143.001 66.3954 143.001 66.3954C144.216 66.6432 145.466 66.6693 146.69 66.4727V66.4727L146.871 66.4298C149.247 65.8806 150.792 62.9977 151.229 60.6382C151.851 60.5047 152.436 60.2384 152.945 59.8575C153.79 59.1701 154.384 58.2226 154.634 57.1626C154.883 56.1025 154.776 54.9896 154.327 53.9973Z" fill="#263238"/>
<path d="M87.4113 176.314C87.4113 176.314 82.186 195.19 81.0363 199.84C79.8866 204.491 79.8952 215.19 82.4863 218.364C85.0775 221.539 93.7433 223.555 93.7433 223.555C93.7433 223.555 110.706 215.276 116.472 205.177C122.237 195.078 138.033 167.597 138.033 167.597L133.031 153.869L106.742 178.974L107.008 175.713L87.4113 176.314Z" fill="#886962"/>
<path d="M142.315 110.608C142.531 110.499 142.767 110.433 143.008 110.415C143.25 110.397 143.493 110.426 143.723 110.502C143.954 110.578 144.167 110.698 144.351 110.856C144.534 111.014 144.685 111.207 144.794 111.423L159.938 141.548L156.06 143.264L141.474 113.036C141.271 112.602 141.245 112.105 141.402 111.652C141.559 111.198 141.886 110.824 142.315 110.608V110.608Z" fill="#455A64"/>
<path d="M132.19 154.778L146.33 140.192H159.887L168.569 151.655C168.569 151.655 164.46 152.419 162.984 150.213L161.071 147.485C161.071 147.485 162.984 151.681 161.929 153.748C161.929 153.748 159.895 158.536 159.569 159.051C158.951 160.012 158.479 160.63 156.712 160.338C154.944 160.046 152.199 158.622 152.499 157.575C152.592 157.278 152.764 157.011 152.997 156.804C153.229 156.597 153.514 156.457 153.82 156.4L149.693 155.808C149.693 155.808 145.541 163.332 143.035 165.1C141.489 166.18 139.796 167.033 138.008 167.631L132.19 154.778Z" fill="#886962"/>
<path d="M107.274 178.536C107.274 178.605 106.133 179.154 104.331 180.201C101.993 181.573 99.7948 183.171 97.7673 184.971C95.7447 186.786 93.908 188.798 92.2847 190.977C91.032 192.642 90.3542 193.748 90.2942 193.705C90.3974 193.419 90.5327 193.146 90.6974 192.89C90.9806 192.376 91.4267 191.655 92.0273 190.788C95.1724 186.271 99.3299 182.551 104.168 179.926C105.095 179.428 105.884 179.068 106.407 178.845C106.683 178.709 106.974 178.605 107.274 178.536Z" fill="#654742"/>
<path d="M149.445 144.396C150.09 144.209 150.755 144.097 151.427 144.062C152.662 143.907 154.37 143.736 156.249 143.564C156.724 143.504 157.206 143.504 157.681 143.564C158.139 143.63 158.574 143.804 158.951 144.07C159.567 144.512 160.06 145.102 160.384 145.786C160.713 146.382 160.928 147.034 161.019 147.708C160.95 147.708 160.693 147.005 160.11 145.932C159.774 145.32 159.301 144.794 158.728 144.396C158.392 144.181 158.015 144.038 157.621 143.976C157.18 143.925 156.733 143.925 156.292 143.976C154.404 144.139 152.696 144.268 151.452 144.336C150.787 144.428 150.114 144.448 149.445 144.396V144.396Z" fill="#654742"/>
<path d="M160.238 158.279C160.17 158.279 160.298 157.249 160.238 155.61C160.187 154.652 160.058 153.699 159.852 152.762C159.621 151.732 159.286 150.497 158.256 149.896C157.731 149.617 157.167 149.417 156.583 149.304L154.919 148.926C153.98 148.715 153.029 148.569 152.07 148.489C151.186 148.458 150.3 148.481 149.419 148.557C149.632 148.434 149.869 148.358 150.114 148.334C150.764 148.208 151.425 148.153 152.087 148.171C153.065 148.205 154.038 148.323 154.996 148.523C155.536 148.626 156.103 148.746 156.712 148.884C157.339 148.996 157.944 149.207 158.505 149.51C159.074 149.855 159.519 150.372 159.775 150.986C160.009 151.536 160.176 152.112 160.273 152.702C160.469 153.665 160.572 154.645 160.581 155.627C160.592 156.287 160.552 156.947 160.461 157.601C160.424 157.837 160.348 158.066 160.238 158.279Z" fill="#654742"/>
<path d="M155.331 153.379C155.536 154.271 155.608 155.187 155.545 156.099V156.365L155.279 156.314C155.128 156.301 154.976 156.301 154.824 156.314C154.112 156.341 153.439 156.65 152.954 157.172C152.568 157.575 152.448 157.918 152.379 157.893C152.31 157.867 152.379 157.481 152.714 156.974C152.96 156.646 153.278 156.378 153.644 156.192C154.01 156.006 154.414 155.907 154.824 155.902C155.009 155.904 155.193 155.924 155.373 155.962L155.107 156.177C155.04 155.238 155.116 154.295 155.331 153.379V153.379Z" fill="#654742"/>
<path d="M155.348 153.834C154.431 153.873 153.512 153.83 152.602 153.706C151.681 153.729 150.76 153.675 149.848 153.542C150.737 153.232 151.686 153.135 152.619 153.259C153.561 153.237 154.495 153.434 155.348 153.834V153.834Z" fill="#654742"/>
<path d="M150.071 153.131C150.123 154.112 149.913 155.089 149.462 155.962C149.152 156.897 148.602 157.735 147.866 158.39C147.763 158.313 148.449 157.24 149.05 155.816C149.651 154.392 149.942 153.105 150.071 153.131Z" fill="#654742"/>
<path d="M204.262 318.064L203.044 356.906L251.358 358.673C251.246 354.049 226.587 343.864 226.587 343.864L228.398 318.982L204.262 318.064Z" fill="#FF725E"/>
<g opacity="0.6">
<path opacity="0.6" d="M211.727 341.221C211.257 341.347 210.849 341.641 210.581 342.047C210.314 342.454 210.206 342.945 210.277 343.426C210.384 343.9 210.669 344.315 211.073 344.585C211.477 344.854 211.969 344.959 212.448 344.876C212.946 344.746 213.378 344.435 213.659 344.004C213.939 343.572 214.049 343.051 213.966 342.543C213.805 342.06 213.462 341.659 213.011 341.424C212.56 341.188 212.035 341.137 211.547 341.281" fill="white"/>
</g>
<g opacity="0.6">
<path opacity="0.6" d="M203.044 356.906L203.318 352.993L249.539 356.151C249.539 356.151 251.658 357.172 251.358 358.673L203.044 356.906Z" fill="white"/>
</g>
<path d="M227.385 343.65C227.385 343.881 226.184 343.95 224.992 344.662C223.799 345.374 223.147 346.378 222.932 346.249C222.718 346.121 223.121 344.799 224.58 343.958C226.038 343.118 227.437 343.435 227.385 343.65Z" fill="#263238"/>
<path d="M232.37 345.932C232.422 346.164 231.384 346.524 230.543 347.493C229.702 348.463 229.436 349.51 229.204 349.493C228.973 349.475 228.87 348.128 229.934 346.919C230.998 345.709 232.379 345.709 232.37 345.932Z" fill="#263238"/>
<path d="M235.03 352.118C234.816 352.118 234.524 350.968 235.185 349.698C235.845 348.429 236.952 347.983 237.047 348.154C237.141 348.326 236.429 349.012 235.914 350.076C235.399 351.14 235.262 352.118 235.03 352.118Z" fill="#263238"/>
<path d="M227.162 337.935C227.059 338.15 225.987 337.781 224.648 337.824C223.31 337.867 222.254 338.253 222.143 338.047C222.031 337.841 223.061 337.034 224.631 337.009C226.201 336.983 227.291 337.755 227.162 337.935Z" fill="#263238"/>
<path d="M226.227 332.161C226.227 332.264 225.283 332.375 223.808 332.058C222.941 331.875 222.099 331.586 221.302 331.2C220.829 330.969 220.374 330.706 219.938 330.411C219.671 330.252 219.431 330.052 219.226 329.819C219.079 329.644 218.993 329.426 218.982 329.198C218.971 328.97 219.036 328.745 219.166 328.557C219.291 328.398 219.451 328.269 219.634 328.183C219.818 328.097 220.019 328.054 220.221 328.06C220.528 328.065 220.831 328.117 221.122 328.214C221.635 328.355 222.132 328.547 222.606 328.789C223.41 329.184 224.146 329.706 224.786 330.333C225.867 331.414 226.219 332.307 226.141 332.35C226.064 332.393 225.506 331.663 224.425 330.762C223.778 330.245 223.069 329.81 222.315 329.467C221.87 329.275 221.411 329.117 220.942 328.995C220.427 328.84 219.998 328.815 219.852 328.995C219.809 329.081 219.801 329.115 219.904 329.269C220.053 329.44 220.226 329.587 220.418 329.707C220.839 329.999 221.276 330.256 221.671 330.488C222.408 330.885 223.181 331.213 223.979 331.466C224.744 331.645 225.495 331.877 226.227 332.161Z" fill="#263238"/>
<path d="M225.901 332.487C225.815 332.487 225.386 331.629 225.352 330.127C225.34 328.692 225.72 327.28 226.45 326.043C226.593 325.729 226.814 325.457 227.092 325.253C227.37 325.049 227.695 324.919 228.037 324.876C228.252 324.891 228.458 324.965 228.633 325.091C228.807 325.217 228.943 325.389 229.024 325.589C229.138 325.877 229.211 326.18 229.239 326.49C229.301 327.033 229.281 327.582 229.179 328.12C229.011 329.02 228.625 329.866 228.055 330.582C227.068 331.801 226.073 332.041 226.056 331.964C226.038 331.886 226.819 331.414 227.583 330.248C228.031 329.571 228.324 328.803 228.441 328C228.509 327.536 228.509 327.065 228.441 326.601C228.381 326.086 228.209 325.666 228.012 325.743C227.814 325.82 227.351 326.103 227.154 326.507C226.897 326.913 226.681 327.344 226.51 327.794C226.212 328.564 226.025 329.373 225.953 330.196C225.815 331.569 226.004 332.461 225.901 332.487Z" fill="#263238"/>
<path d="M131.787 318.347L144.022 355.241L98.2049 370.685C96.9951 366.224 117.733 349.441 117.733 349.441L108.93 326.129L131.787 318.347Z" fill="#FF725E"/>
<g opacity="0.6">
<path opacity="0.6" d="M131.229 342.68C131.718 342.667 132.194 342.835 132.566 343.152C132.938 343.469 133.18 343.912 133.246 344.396C133.278 344.881 133.123 345.36 132.814 345.735C132.504 346.11 132.063 346.352 131.581 346.412C131.066 346.425 130.564 346.248 130.171 345.914C129.778 345.58 129.523 345.113 129.453 344.602C129.453 343.632 130.466 342.534 131.418 342.697" fill="white"/>
</g>
<g opacity="0.6">
<path opacity="0.6" d="M144.022 355.232L142.641 351.56L99.2345 367.751C99.2345 367.751 97.5185 369.33 98.2049 370.685L144.022 355.232Z" fill="white"/>
</g>
<path d="M116.918 349.458C116.995 349.673 118.153 349.398 119.492 349.75C120.83 350.102 121.74 350.84 121.92 350.677C122.1 350.514 121.319 349.347 119.689 348.961C118.059 348.574 116.798 349.269 116.918 349.458Z" fill="#263238"/>
<path d="M112.748 353.062C112.748 353.293 113.863 353.354 114.944 354.04C116.026 354.726 116.583 355.662 116.798 355.576C117.012 355.49 116.738 354.177 115.373 353.345C114.009 352.513 112.748 352.847 112.748 353.062Z" fill="#263238"/>
<path d="M111.993 359.737C112.207 359.737 112.147 358.493 111.135 357.463C110.123 356.434 108.93 356.296 108.904 356.511C108.878 356.725 109.762 357.172 110.534 358.03C111.307 358.888 111.761 359.788 111.993 359.737Z" fill="#263238"/>
<path d="M115.494 343.915C115.657 344.096 116.583 343.435 117.87 343.058C119.157 342.68 120.29 342.783 120.341 342.56C120.393 342.337 119.174 341.848 117.656 342.268C116.137 342.689 115.322 343.778 115.494 343.915Z" fill="#263238"/>
<path d="M114.756 338.115C114.756 338.21 115.717 338.047 117.047 337.326C117.823 336.903 118.544 336.384 119.192 335.782C119.578 335.424 119.942 335.043 120.281 334.641C120.49 334.411 120.661 334.151 120.787 333.868C120.882 333.66 120.904 333.425 120.85 333.203C120.795 332.98 120.668 332.783 120.487 332.641C120.323 332.523 120.134 332.445 119.934 332.414C119.734 332.383 119.53 332.399 119.337 332.461C119.033 332.555 118.743 332.694 118.479 332.873C118.031 333.159 117.609 333.483 117.218 333.843C116.562 334.452 116.006 335.162 115.571 335.945C115.102 336.627 114.851 337.434 114.85 338.261C114.979 338.261 115.262 337.403 116.068 336.245C116.541 335.563 117.098 334.944 117.724 334.4C118.095 334.083 118.491 333.796 118.908 333.542C119.346 333.251 119.766 333.113 119.955 333.285C120.144 333.456 120.05 333.379 119.955 333.559C119.856 333.765 119.729 333.955 119.578 334.126C119.276 334.513 118.949 334.88 118.6 335.224C118.009 335.82 117.363 336.357 116.669 336.828C115.554 337.644 114.704 337.995 114.756 338.115Z" fill="#263238"/>
<path d="M115.15 338.338C115.245 338.338 115.416 337.395 115.013 335.919C114.615 334.54 113.85 333.294 112.799 332.315C112.572 332.055 112.281 331.857 111.955 331.741C111.629 331.626 111.279 331.596 110.938 331.655C110.735 331.727 110.558 331.856 110.427 332.026C110.296 332.197 110.217 332.401 110.2 332.616C110.169 332.922 110.184 333.231 110.243 333.534C110.508 334.985 111.334 336.273 112.542 337.12C113.846 337.978 114.867 337.978 114.859 337.875C114.183 337.509 113.529 337.102 112.902 336.657C112.284 336.135 111.786 335.485 111.444 334.752C111.249 334.323 111.114 333.87 111.041 333.405C110.946 332.899 111.041 332.444 111.195 332.427C111.396 332.428 111.594 332.472 111.776 332.557C111.958 332.641 112.12 332.763 112.25 332.916C112.613 333.235 112.946 333.585 113.246 333.963C113.75 334.616 114.157 335.338 114.455 336.108C114.979 337.429 115.022 338.39 115.15 338.338Z" fill="#263238"/>
<path d="M120.753 230.72C120.753 230.72 102.804 214.804 94.9274 214.941C87.0509 215.078 61.2165 213.354 72.0531 249.149C82.9754 285.246 102.538 340.441 103.07 338.459L136.772 323.667L123.044 272.324C123.044 272.324 168.921 272.839 177.784 271.681C186.648 270.522 203.224 258.811 203.224 258.811L200.581 323.684L235.759 321.728C235.759 321.728 240.702 243.796 242.126 227.785C243.361 213.843 227.694 198.193 211.71 201.719C201.276 204.027 163.962 230.368 163.962 230.368L120.753 230.72Z" fill="#263238"/>
<path d="M204.434 224.353C204.488 224.924 204.488 225.498 204.434 226.069C204.374 227.27 204.288 228.815 204.194 230.685C204.013 234.589 203.885 239.977 203.79 245.941C203.696 251.904 203.584 257.3 203.379 261.204C203.284 263.161 203.164 264.739 203.061 265.829C203.044 266.407 202.969 266.982 202.838 267.545C202.792 266.974 202.792 266.4 202.838 265.829C202.838 264.628 202.907 263.075 202.958 261.213C203.027 257.197 203.113 251.852 203.207 245.941C203.301 240.029 203.49 234.581 203.773 230.677C203.919 228.729 204.065 227.15 204.202 226.061C204.233 225.486 204.31 224.915 204.434 224.353V224.353Z" fill="#455A64"/>
<path d="M203.01 254.726C202.394 254.192 201.869 253.56 201.457 252.856C199.289 249.549 198.1 245.698 198.025 241.745C197.956 240.932 198.029 240.114 198.239 239.325C198.436 239.325 198.162 243.058 199.535 247.373C200.907 251.689 203.173 254.623 203.01 254.726Z" fill="#455A64"/>
<path d="M155.142 267.871C155.082 267.871 155.013 267.013 154.739 265.4C154.357 263.161 153.739 260.97 152.894 258.862C151.644 255.744 149.929 252.834 147.806 250.231C145.195 247.039 141.99 244.385 138.368 242.414C130.766 238.004 124.048 233.663 119.363 230.282C117.021 228.566 115.176 227.142 113.958 226.078C113.34 225.563 112.885 225.125 112.576 224.834C112.41 224.694 112.261 224.535 112.13 224.362C112.13 224.362 112.834 224.902 114.104 225.898C115.373 226.893 117.235 228.3 119.603 229.939C124.34 233.234 131.075 237.498 138.694 241.951C142.367 243.962 145.609 246.676 148.235 249.939C150.37 252.599 152.072 255.578 153.28 258.768C154.114 260.908 154.69 263.14 154.996 265.417C155.086 266.031 155.14 266.65 155.159 267.27C155.174 267.471 155.168 267.672 155.142 267.871Z" fill="#455A64"/>
<path d="M167.557 229.862C167.411 230.38 167.216 230.883 166.974 231.363C166.553 232.316 165.987 233.697 165.335 235.43C161.92 244.466 160.336 254.09 160.676 263.744C160.736 265.589 160.83 267.082 160.925 268.111C161.003 268.645 161.026 269.186 160.993 269.724C160.845 269.205 160.745 268.674 160.693 268.137C160.53 267.116 160.376 265.614 160.264 263.761C159.69 254.05 161.29 244.333 164.949 235.318C165.652 233.602 166.279 232.23 166.768 231.312C166.982 230.803 167.247 230.318 167.557 229.862Z" fill="#455A64"/>
<path d="M100.067 225.194C100.238 225.287 100.401 225.393 100.556 225.512L101.903 226.498C102.203 226.713 102.521 226.953 102.872 227.219C103.224 227.485 103.559 227.828 103.945 228.171C104.83 228.93 105.665 229.747 106.442 230.617L107.806 232.135C108.243 232.693 108.664 233.285 109.136 233.851L109.839 234.787C110.062 235.113 110.268 235.456 110.483 235.799C110.912 236.494 111.341 237.189 111.804 237.935C113.597 241.195 115.107 244.602 116.317 248.12C117.647 251.844 118.651 255.481 119.552 258.776L121.886 267.554C122.572 270.05 123.121 272.067 123.542 273.448C123.73 274.117 123.876 274.649 123.996 275.052C124.051 275.238 124.094 275.427 124.125 275.619C124.034 275.447 123.962 275.266 123.911 275.078C123.782 274.675 123.602 274.152 123.387 273.499C122.924 272.127 122.323 270.119 121.603 267.631L119.183 258.879C118.256 255.584 117.244 251.964 115.923 248.257C114.721 244.762 113.231 241.373 111.47 238.124C111.049 237.378 110.612 236.683 110.174 235.996C109.959 235.653 109.762 235.31 109.539 234.984L108.861 234.057C108.407 233.448 108.003 232.847 107.557 232.298L106.227 230.771C105.467 229.898 104.653 229.072 103.79 228.3C103.413 227.948 103.087 227.605 102.744 227.322L101.808 226.584L100.504 225.537C100.347 225.438 100.201 225.323 100.067 225.194Z" fill="#455A64"/>
<path d="M120.384 230.402C126.785 234.624 133.838 235.619 141.379 237.06C145.73 237.918 150.277 238.648 154.524 237.395C163.627 234.709 172.422 224.345 178.265 220.655L153.855 226.85L120.384 230.402Z" fill="#FF725E"/>
</svg>
