<svg width="108" height="109" viewBox="0 0 108 109" fill="none" xmlns="http://www.w3.org/2000/svg">
<path d="M76 36.3333V36.8333H76.5H81C85.6695 36.8333 89.5 40.6926 89.5 45.4167V90.8333C89.5 95.5574 85.6695 99.4167 81 99.4167H27C22.3305 99.4167 18.5 95.5574 18.5 90.8333V45.4167C18.5 40.6926 22.3305 36.8333 27 36.8333H31.5H32V36.3333V27.25C32 14.9868 41.8605 5.04167 54 5.04167C66.1395 5.04167 76 14.9868 76 27.25V36.3333ZM67.95 36.8333H68.45V36.3333V27.25C68.45 19.212 61.9755 12.6708 54 12.6708C46.0245 12.6708 39.55 19.212 39.55 27.25V36.3333V36.8333H40.05H67.95ZM44.5 68.125C44.5 73.3926 48.7695 77.7083 54 77.7083C59.2305 77.7083 63.5 73.3926 63.5 68.125C63.5 62.8574 59.2305 58.5417 54 58.5417C48.7695 58.5417 44.5 62.8574 44.5 68.125Z" fill="#F8CF3F" stroke="#24446F"/>
</svg>
