<svg width="35" height="40" viewBox="0 0 35 40" fill="none" xmlns="http://www.w3.org/2000/svg">
<g clip-path="url(#clip0_38_59)">
<path d="M34.5517 20.0036C34.5517 17.6941 31.714 15.5055 27.3631 14.1482C28.3672 9.62885 27.9209 6.03323 25.9547 4.88206C25.5015 4.61203 24.9716 4.48413 24.3929 4.48413V6.06876C24.7136 6.06876 24.9716 6.13271 25.1877 6.25351C26.136 6.80778 26.5474 8.91825 26.2266 11.6327C26.1499 12.3007 26.0244 13.0042 25.871 13.7219C24.5044 13.3808 23.0123 13.1179 21.4435 12.9473C20.5022 11.6327 19.5261 10.4389 18.543 9.39435C20.816 7.24124 22.9496 6.06165 24.3998 6.06165V4.47702C22.4824 4.47702 19.9723 5.86979 17.4344 8.28582C14.8964 5.884 12.3863 4.50544 10.4689 4.50544V6.09008C11.9122 6.09008 14.0527 7.26256 16.3257 9.40146C15.3496 10.446 14.3734 11.6327 13.4461 12.9473C11.8703 13.1179 10.3782 13.3808 9.01162 13.729C8.85125 13.0184 8.73272 12.3291 8.64905 11.6683C8.32134 8.95378 8.72575 6.84331 9.66703 6.28194C9.8762 6.15403 10.1481 6.09718 10.4689 6.09718V4.51255C9.88318 4.51255 9.35327 4.64046 8.89309 4.91048C6.93382 6.06165 6.49456 9.65017 7.50557 14.1554C3.1687 15.5197 0.344849 17.7012 0.344849 20.0036C0.344849 22.313 3.18264 24.5016 7.53346 25.8589C6.52942 30.3783 6.97566 33.9739 8.94189 35.1251C9.3951 35.3951 9.92501 35.523 10.5107 35.523C12.4281 35.523 14.9382 34.1302 17.4762 31.7142C20.0142 34.116 22.5242 35.4946 24.4417 35.4946C25.0274 35.4946 25.5573 35.3667 26.0175 35.0967C27.9767 33.9455 28.416 30.357 27.405 25.8518C31.7279 24.4945 34.5517 22.3059 34.5517 20.0036ZM25.4736 15.2639C25.2156 16.1806 24.8949 17.1257 24.5323 18.0707C24.2464 17.5023 23.9466 16.9338 23.6189 16.3653C23.2982 15.7968 22.9565 15.2426 22.6149 14.7025C23.605 14.8517 24.5602 15.0365 25.4736 15.2639ZM22.2802 22.8317C21.7364 23.7911 21.1786 24.7006 20.5998 25.5462C19.561 25.6386 18.5081 25.6883 17.4483 25.6883C16.3955 25.6883 15.3426 25.6386 14.3107 25.5533C13.732 24.7077 13.1672 23.8053 12.6234 22.8531C12.0934 21.9222 11.6123 20.9771 11.1731 20.0249C11.6054 19.0727 12.0934 18.1205 12.6164 17.1896C13.1602 16.2303 13.718 15.3207 14.2967 14.4751C15.3356 14.3827 16.3885 14.333 17.4483 14.333C18.5011 14.333 19.554 14.3827 20.5859 14.468C21.1646 15.3136 21.7294 16.2161 22.2732 17.1683C22.8031 18.0992 23.2842 19.0443 23.7235 19.9965C23.2842 20.9487 22.8031 21.9009 22.2802 22.8317ZM24.5323 21.908C24.9088 22.8602 25.2296 23.8124 25.4945 24.7361C24.5811 24.9635 23.6189 25.1554 22.6219 25.3046C22.9635 24.7575 23.3052 24.1961 23.6259 23.6205C23.9466 23.052 24.2464 22.4764 24.5323 21.908ZM17.4622 29.49C16.8138 28.8079 16.1654 28.0475 15.5239 27.2161C16.1514 27.2446 16.7929 27.2659 17.4413 27.2659C18.0967 27.2659 18.7452 27.2517 19.3797 27.2161C18.7521 28.0475 18.1037 28.8079 17.4622 29.49ZM12.2747 25.3046C11.2846 25.1554 10.3294 24.9706 9.41602 24.7433C9.674 23.8266 9.99474 22.8815 10.3573 21.9364C10.6432 22.5049 10.943 23.0734 11.2707 23.6418C11.5984 24.2103 11.9331 24.7646 12.2747 25.3046ZM17.4274 10.5171C18.0758 11.1993 18.7243 11.9596 19.3657 12.791C18.7382 12.7626 18.0967 12.7413 17.4483 12.7413C16.7929 12.7413 16.1444 12.7555 15.51 12.791C16.1375 11.9596 16.7859 11.1993 17.4274 10.5171ZM12.2678 14.7025C11.9261 15.2497 11.5845 15.811 11.2637 16.3866C10.943 16.9551 10.6432 17.5236 10.3573 18.0921C9.98079 17.1399 9.66006 16.1877 9.3951 15.2639C10.3085 15.0436 11.2707 14.8517 12.2678 14.7025ZM5.95768 23.5992C3.48943 22.5262 1.89274 21.1192 1.89274 20.0036C1.89274 18.8879 3.48943 17.4738 5.95768 16.4079C6.55731 16.145 7.21272 15.9105 7.88905 15.6902C8.28648 17.083 8.80942 18.5326 9.45786 20.0178C8.81639 21.4958 8.30043 22.9383 7.90997 24.324C7.2197 24.1037 6.56429 23.8621 5.95768 23.5992ZM9.70887 33.7536C8.76061 33.1994 8.34924 31.0889 8.66997 28.3744C8.74667 27.7064 8.87217 27.003 9.02557 26.2852C10.3922 26.6263 11.8843 26.8893 13.4531 27.0598C14.3944 28.3744 15.3705 29.5682 16.3536 30.6128C14.0806 32.7659 11.947 33.9455 10.4968 33.9455C10.183 33.9384 9.91804 33.8744 9.70887 33.7536ZM26.2475 28.3389C26.5753 31.0534 26.1708 33.1638 25.2296 33.7252C25.0204 33.8531 24.7485 33.91 24.4277 33.91C22.9844 33.91 20.8439 32.7375 18.5709 30.5986C19.547 29.554 20.5232 28.3673 21.4505 27.0527C23.0263 26.8822 24.5184 26.6192 25.885 26.271C26.0453 26.9887 26.1708 27.678 26.2475 28.3389ZM28.9319 23.5992C28.3323 23.8621 27.6769 24.0966 27.0006 24.3169C26.6031 22.9241 26.0802 21.4745 25.4318 19.9894C26.0732 18.5113 26.5892 17.0688 26.9797 15.6831C27.6699 15.9034 28.3253 16.145 28.9389 16.4079C31.4072 17.4809 33.0039 18.8879 33.0039 20.0036C32.9969 21.1192 31.4002 22.5333 28.9319 23.5992Z" fill="#61DAFB"/>
<path d="M17.4413 23.251C19.2011 23.251 20.6277 21.7971 20.6277 20.0036C20.6277 18.2101 19.2011 16.7562 17.4413 16.7562C15.6815 16.7562 14.2549 18.2101 14.2549 20.0036C14.2549 21.7971 15.6815 23.251 17.4413 23.251Z" fill="#61DAFB"/>
</g>
<defs>
<clipPath id="clip0_38_59">
<rect width="34.2069" height="39.7241" fill="white" transform="translate(0.344849 0.137939)"/>
</clipPath>
</defs>
</svg>
